<?xml version="1.0" encoding="UTF-8"?>
<svg width="27px" height="25px" viewBox="0 0 27 25" version="1.1" xmlns="http://www.w3.org/2000/svg" xmlns:xlink="http://www.w3.org/1999/xlink">
  <title>Hat</title>
  <style>
    #Header {
      fill: #363636;
    }
    @media (prefers-color-scheme: dark) {
      #Header {
        fill: white;
      }
    }
  </style>
  <g id="Header" stroke="none" stroke-width="1" fill-rule="evenodd">
    <path d="M17.1749775,20.0117522 C16.0719195,20.1517967 14.3360214,20.1293896 11.8695837,21.9138364 C9.75454882,23.4442426 8.9196915,24.1055326 7.19923619,24.5175435 C5.56103749,24.9099481 3.17622611,24.8287223 2.49831818,23.7613033 C1.83049536,22.7095692 2.16078244,21.0231535 3.09775141,20.212576 C5.00572658,18.5622918 6.99280677,17.7326683 13.578063,19.1216295 C15.8298771,19.5963803 16.594769,19.7846001 17.1749775,20.0117522" id="Fill-17"/>
    <path d="M21.2200387,13.9468434 C20.7956974,14.2107341 20.3355144,14.5208214 19.8711711,14.8476788 C18.4624606,8.80160816 19.3325842,3.77945863 19.2865019,2.50873329 C19.2180184,0.611188511 18.1520451,0.409315312 17.0956722,0.105239852 C15.9365741,-0.228262265 10.7337535,0.321351756 7.14349375,1.69491218 C-0.190953563,4.50120277 -0.103269172,7.78180045 0.0352977677,8.60986026 C0.227947416,9.56891616 0.574524772,9.92045397 1.60753651,11.0741055 C3.993576,13.7395911 6.20168658,17.2473753 6.20168658,17.2473753 C6.95436427,17.0179739 7.71280226,16.8762197 8.45971966,16.7999635 C7.6577595,14.852425 5.85926943,11.8088227 4.99458613,10.5997984 C3.5682747,8.60606328 3.58523555,8.80097533 3.30938173,8.24819715 C3.17241487,7.97607967 3.18009526,7.7302247 3.67900024,7.30780978 C4.11198193,6.94108401 4.99906635,6.53322421 5.44420865,6.43386969 C5.85094902,6.34337481 6.28937097,6.59619093 6.59626634,7.22585812 C7.41262722,8.90096268 9.2831209,12.4834209 10.8259182,16.7594623 C13.118193,16.8945718 15.0837314,17.48089 16.1049025,17.7672462 C16.1029824,17.7700939 16.094342,17.7783208 16.0956221,17.7783208 C18.4595805,18.3747643 19.3863469,18.550375 21.8587907,18.6231506 C24.0771418,18.6883322 26.6193491,17.7359211 26.8936028,15.2011151 C27.1048134,13.2475648 25.9121137,11.0317058 21.2200387,13.9468434" id="Fill-19"/>
  </g>
</svg>